<?xml version="1.0" standalone="no"?>
<!DOCTYPE svg PUBLIC "-//W3C//DTD SVG 20010904//EN"
 "http://www.w3.org/TR/2001/REC-SVG-20010904/DTD/svg10.dtd">
<svg version="1.0" xmlns="http://www.w3.org/2000/svg"
 width="1024.000000pt" height="1024.000000pt" viewBox="0 0 1024.000000 1024.000000"
 preserveAspectRatio="xMidYMid meet">
<metadata>
Created by potrace 1.11, written by Peter Selinger 2001-2013
</metadata>
<g transform="translate(0.000000,1024.000000) scale(0.100000,-0.100000)"
fill="#000000" stroke="none">
<path d="M4075 9354 c-20 -42 -166 -621 -194 -767 -14 -74 -15 -101 -7 -113
10 -14 14 -13 29 3 22 25 42 82 82 238 97 378 148 675 116 675 -5 0 -16 -16
-26 -36z"/>
<path d="M5285 9281 c-44 -11 -71 -27 -94 -57 -30 -38 -26 -64 19 -131 39 -59
130 -153 148 -153 20 0 43 41 72 130 39 119 38 167 -5 191 -37 21 -100 30
-140 20z m81 -66 c36 -15 36 -15 29 -62 -9 -62 -34 -123 -50 -123 -17 0 -72
63 -92 106 -19 39 -9 58 42 80 37 16 30 17 71 -1z"/>
<path d="M5596 9195 c-18 -27 -60 -150 -70 -205 -9 -54 11 -75 68 -73 54 2
143 26 170 46 18 13 18 17 6 47 -16 39 -99 167 -124 193 -23 23 -31 22 -50 -8z
m94 -166 c0 -23 -59 -55 -84 -46 -29 12 -11 81 28 109 14 10 56 -37 56 -63z"/>
<path d="M4999 9103 c-5 -16 -12 -34 -14 -42 -12 -32 -34 -193 -28 -206 4 -11
22 -15 72 -15 112 1 171 23 171 66 0 16 -91 151 -130 192 -38 39 -57 41 -71 5z
m77 -111 c11 -10 28 -29 38 -44 18 -27 17 -27 -7 -33 -13 -4 -38 -5 -53 -3
-23 2 -30 9 -32 30 -3 27 13 68 26 68 4 -1 16 -8 28 -18z"/>
<path d="M5867 8863 c-42 -32 -73 -70 -86 -106 -13 -33 24 -90 113 -175 123
-118 151 -68 94 164 -21 87 -49 144 -71 144 -7 0 -30 -12 -50 -27z m69 -118
c15 -48 18 -125 5 -125 -19 0 -81 84 -81 109 0 29 28 63 49 59 9 -2 21 -21 27
-43z"/>
<path d="M4446 8851 c-23 -43 -51 -131 -91 -286 -21 -77 -45 -169 -55 -205
-21 -73 -85 -346 -95 -401 -9 -47 10 -88 30 -68 40 43 245 847 245 961 0 36
-15 36 -34 -1z"/>
<path d="M5357 8774 c-54 -8 -122 -22 -150 -32 -46 -15 -52 -20 -55 -48 -2
-25 5 -38 39 -71 63 -62 135 -95 212 -96 56 -2 68 1 101 26 52 41 125 136 132
175 10 52 -6 62 -100 61 -44 -1 -125 -8 -179 -15z m193 -58 c0 -17 -46 -84
-73 -107 -33 -26 -77 -31 -133 -14 -56 17 -114 67 -92 81 12 7 239 50 281 53
9 1 17 -5 17 -13z"/>
<path d="M4828 8708 c-17 -31 -14 -236 4 -303 12 -42 18 -51 40 -53 33 -4 70
39 116 135 57 120 43 169 -63 219 -62 30 -81 30 -97 2z m97 -90 c18 -8 25 -19
25 -39 0 -35 -40 -119 -56 -119 -14 0 -24 46 -24 110 0 63 8 70 55 48z"/>
<path d="M3410 8635 c0 -28 66 -147 172 -310 133 -206 208 -305 230 -305 41 0
27 27 -180 360 -74 118 -146 227 -160 243 -28 29 -62 36 -62 12z"/>
<path d="M5725 8526 c-101 -41 -193 -88 -224 -113 -22 -18 -23 -21 -8 -49 28
-53 134 -114 201 -114 66 0 128 80 161 207 18 70 18 68 -1 87 -22 22 -38 20
-129 -18z m65 -63 c0 -54 -79 -153 -122 -153 -29 0 -79 32 -76 49 3 15 163
118 186 120 6 1 12 -7 12 -16z"/>
<path d="M5130 8434 c-64 -8 -121 -27 -129 -43 -15 -27 12 -73 74 -129 110
-98 171 -110 235 -47 80 78 103 176 49 202 -28 13 -171 24 -229 17z m173 -99
c26 -11 21 -30 -19 -65 -28 -25 -42 -30 -62 -25 -41 10 -132 78 -132 98 0 11
183 4 213 -8z"/>
<path d="M6004 8375 c-32 -25 -101 -75 -151 -111 -109 -77 -121 -99 -77 -145
42 -44 151 -111 179 -111 34 0 57 22 93 90 54 103 79 215 64 282 -11 51 -38
50 -108 -5z m36 -143 c-19 -59 -63 -122 -89 -129 -26 -6 -69 15 -86 42 -12 19
21 50 120 116 67 44 76 39 55 -29z"/>
<path d="M4810 8189 c0 -25 10 -66 24 -95 26 -56 138 -181 192 -215 l35 -21
34 27 c39 29 110 121 125 161 15 38 -9 70 -62 84 -24 6 -97 29 -163 52 -66 22
-135 43 -152 45 -33 5 -33 5 -33 -38z m205 -98 c47 -14 103 -40 109 -49 9 -15
-33 -71 -59 -78 -19 -5 -36 1 -66 21 -40 29 -99 100 -99 121 0 12 51 5 115
-15z"/>
<path d="M2663 8201 c-94 -6 -115 -13 -96 -32 23 -23 187 -31 550 -27 375 3
428 8 374 37 -43 23 -588 37 -828 22z"/>
<path d="M4721 8123 c-22 -48 -91 -272 -127 -412 -33 -131 -42 -201 -26 -201
16 0 41 36 57 80 30 84 135 495 135 528 0 40 -22 43 -39 5z"/>
<path d="M5485 8129 c-176 -28 -207 -45 -185 -99 15 -36 66 -79 145 -120 67
-35 121 -39 157 -11 47 38 107 178 93 221 -6 18 -15 20 -83 19 -42 -1 -99 -5
-127 -10z m135 -94 c0 -28 -24 -67 -50 -80 -22 -11 -32 -10 -84 11 -59 24
-101 53 -91 62 10 10 81 20 153 21 57 1 72 -2 72 -14z"/>
<path d="M5831 7944 c-30 -20 -84 -50 -120 -66 -36 -17 -74 -37 -83 -46 -55
-48 35 -189 104 -163 35 13 103 86 145 154 28 46 37 73 38 106 0 59 -15 62
-84 15z m-36 -143 c-31 -46 -70 -75 -91 -67 -31 12 -13 42 49 78 34 20 64 34
66 32 2 -2 -8 -22 -24 -43z"/>
<path d="M5168 7859 c-42 -24 -1 -87 104 -165 71 -52 138 -79 173 -70 51 13
85 135 47 169 -10 9 -51 21 -91 28 -40 6 -98 19 -129 30 -62 21 -79 23 -104 8z
m195 -111 c64 -23 70 -28 57 -48 -7 -12 -17 -10 -57 9 -26 12 -61 34 -78 48
-29 24 -29 24 -5 18 14 -3 51 -16 83 -27z"/>
<path d="M3970 7834 c0 -27 87 -139 270 -347 124 -142 240 -237 240 -199 0 26
-113 168 -297 373 -151 168 -213 219 -213 173z"/>
<path d="M3480 7755 c-179 -30 -539 -124 -567 -147 -41 -33 13 -36 154 -9 244
49 518 117 562 140 59 32 -13 39 -149 16z"/>
<path d="M6705 7574 c-91 -19 -213 -78 -227 -109 -9 -21 -5 -37 29 -107 40
-83 82 -138 104 -138 6 0 33 22 58 49 161 170 231 251 231 268 0 44 -87 61
-195 37z m50 -84 c-17 -33 -133 -160 -146 -160 -14 0 -39 57 -39 89 0 23 8 34
36 51 40 25 107 48 142 49 22 1 22 0 7 -29z"/>
<path d="M6991 7446 c-16 -19 -3 -48 53 -123 61 -81 110 -123 143 -123 63 0
153 67 153 114 0 37 -83 88 -204 125 -79 24 -129 27 -145 7z m166 -71 c28 -8
61 -23 74 -33 l22 -19 -21 -21 c-35 -35 -65 -28 -111 24 -60 69 -55 76 36 49z"/>
<path d="M3835 7395 c-117 -25 -458 -119 -512 -142 -18 -7 -33 -21 -33 -30 0
-23 81 -13 256 32 296 76 454 130 454 155 0 15 -44 11 -165 -15z"/>
<path d="M6307 7385 c-78 -29 -205 -131 -208 -168 -4 -38 24 -77 73 -103 58
-30 64 -26 193 150 36 49 65 97 65 106 0 32 -56 39 -123 15z m-39 -127 c-56
-65 -73 -77 -89 -61 -16 16 8 45 70 85 65 41 69 35 19 -24z"/>
<path d="M6842 7296 c-121 -49 -152 -78 -152 -143 0 -76 52 -168 112 -199 37
-19 41 -16 96 81 51 91 92 195 92 233 0 34 -22 62 -48 62 -9 0 -54 -15 -100
-34z m68 -46 c0 -17 -87 -185 -103 -198 -11 -9 -17 -8 -30 6 -24 26 -35 65
-27 88 9 22 66 71 115 97 36 19 45 21 45 7z"/>
<path d="M6455 7159 c-140 -75 -193 -156 -154 -232 16 -32 100 -116 131 -133
25 -13 28 -12 47 12 37 47 84 210 85 294 l1 75 -35 3 c-21 1 -51 -6 -75 -19z
m35 -75 c0 -29 -46 -172 -62 -191 -14 -17 -44 3 -64 45 -15 32 -15 35 12 74
27 39 91 98 106 98 5 0 8 -12 8 -26z"/>
<path d="M7376 7102 c-16 -37 -31 -88 -34 -114 -4 -39 -1 -48 17 -57 44 -24
252 23 275 62 9 16 4 25 -31 57 -44 38 -172 120 -189 120 -5 0 -22 -31 -38
-68z m133 -54 c13 -9 21 -23 18 -30 -8 -23 -117 -50 -117 -29 0 12 26 74 35
83 8 8 32 -1 64 -24z"/>
<path d="M4125 7105 c-121 -28 -381 -111 -413 -131 -28 -18 -20 -34 17 -34 33
0 362 90 440 120 80 31 112 50 106 60 -9 14 -38 11 -150 -15z"/>
<path d="M4577 7089 c-85 -20 -154 -72 -143 -107 6 -17 185 -104 334 -161 75
-28 89 -4 91 151 1 128 1 128 -137 127 -59 -1 -124 -5 -145 -10z m194 -59 c28
-16 24 -120 -6 -120 -34 0 -213 95 -201 107 20 20 175 30 207 13z"/>
<path d="M4964 7089 c-37 -11 -58 -33 -51 -54 4 -8 37 -30 76 -49 38 -20 95
-54 127 -76 32 -22 67 -39 78 -38 32 5 78 71 83 121 5 40 2 47 -19 61 -55 36
-223 56 -294 35z m240 -78 c18 -15 10 -41 -13 -41 -9 1 -41 14 -71 31 l-55 30
62 -4 c34 -2 68 -9 77 -16z"/>
<path d="M7104 7041 c-49 -22 -108 -73 -146 -125 -33 -45 -37 -102 -13 -182
18 -62 70 -142 101 -156 45 -21 74 26 127 207 60 207 61 215 39 244 -24 33
-56 36 -108 12z m46 -69 c0 -11 -66 -250 -77 -280 l-9 -23 -21 23 c-55 59 -70
146 -33 198 34 48 140 110 140 82z"/>
<path d="M6062 6983 c-61 -30 -52 -96 31 -221 51 -75 108 -125 135 -115 12 5
14 23 8 114 -7 123 -21 206 -37 226 -16 18 -96 16 -137 -4z m82 -84 c3 -17 6
-52 5 -78 l-1 -46 -30 63 c-31 66 -31 92 0 92 14 0 21 -9 26 -31z"/>
<path d="M4319 6842 c-24 -16 -81 -68 -126 -115 -64 -67 -83 -93 -83 -115 0
-26 6 -30 63 -50 34 -12 72 -22 85 -22 40 0 90 58 117 137 35 101 42 155 20
176 -22 22 -23 22 -76 -11z m11 -102 c0 -33 -31 -100 -52 -111 -23 -12 -78 6
-78 25 0 20 100 106 122 106 5 0 8 -9 8 -20z"/>
<path d="M6695 6845 c-82 -40 -135 -98 -135 -149 0 -41 43 -108 108 -168 53
-50 95 -67 121 -51 25 16 32 96 21 243 -5 74 -10 138 -10 143 0 15 -57 6 -105
-18z m30 -72 c4 -10 10 -62 13 -115 6 -119 -5 -126 -65 -40 -60 85 -62 97 -18
138 41 38 59 42 70 17z"/>
<path d="M7548 6840 c-60 -10 -169 -46 -193 -64 -12 -9 -15 -19 -10 -35 13
-44 155 -167 212 -185 16 -5 30 1 56 24 64 55 84 139 53 215 -13 31 -43 57
-63 54 -4 -1 -29 -5 -55 -9z m64 -85 c14 -31 -2 -93 -32 -120 -20 -18 -21 -17
-76 20 -58 40 -89 75 -76 86 15 14 98 38 135 39 30 0 40 -5 49 -25z"/>
<path d="M5318 6820 c-62 -33 -64 -49 -19 -155 12 -27 27 -72 32 -100 17 -82
29 -105 55 -105 33 0 56 40 71 124 20 113 17 198 -8 230 -25 32 -76 34 -131 6z
m90 -119 c2 -30 0 -66 -4 -80 -6 -22 -10 -15 -25 44 -24 91 -24 97 4 93 19 -3
22 -10 25 -57z"/>
<path d="M4949 6821 c-57 -19 -71 -31 -64 -58 12 -50 160 -246 210 -279 14 -9
33 -13 44 -9 32 10 56 88 56 180 0 88 -14 133 -48 155 -25 16 -160 23 -198 11z
m145 -56 c20 -21 36 -79 36 -137 0 -53 -11 -60 -41 -25 -28 32 -99 138 -99
149 0 25 81 35 104 13z"/>
<path d="M4536 6769 c-62 -15 -96 -39 -96 -70 0 -14 8 -33 18 -41 41 -36 260
-177 284 -183 35 -9 48 16 55 108 11 150 -26 198 -152 196 -38 -1 -87 -5 -109
-10z m196 -89 c22 -27 24 -88 3 -96 -16 -7 -94 31 -164 79 -57 39 -41 49 63
44 68 -3 82 -7 98 -27z"/>
<path d="M6380 6695 c-75 -41 -140 -100 -140 -129 0 -56 152 -219 244 -262 60
-28 69 -29 86 -9 11 13 7 39 -18 148 -17 73 -34 150 -37 172 -11 70 -15 83
-31 99 -21 22 -30 20 -104 -19z m67 -146 c24 -82 29 -149 11 -149 -21 0 -128
116 -128 139 0 27 64 95 82 89 7 -3 23 -38 35 -79z"/>
<path d="M5850 6658 c0 -48 83 -292 116 -343 22 -34 44 -32 44 5 0 37 -74 263
-103 315 -26 47 -57 59 -57 23z"/>
<path d="M7241 6589 c-27 -29 -41 -87 -41 -168 l0 -71 63 6 c148 13 217 33
217 62 0 23 -92 127 -139 156 -54 34 -79 38 -100 15z m103 -102 c30 -38 30
-39 12 -53 -29 -21 -73 -18 -86 6 -15 28 5 92 27 88 9 -2 30 -20 47 -41z"/>
<path d="M6815 6429 c-92 -34 -136 -69 -119 -97 6 -9 37 -28 70 -41 50 -20 77
-24 173 -25 138 -1 143 3 116 88 -35 110 -95 129 -240 75z m149 -55 c9 -8 16
-27 16 -41 0 -25 -1 -26 -57 -20 -60 5 -113 24 -113 39 0 14 62 37 102 38 20
0 43 -7 52 -16z"/>
<path d="M4383 6439 c-52 -27 -36 -79 62 -205 114 -146 174 -205 204 -202 42
5 65 64 63 164 -1 91 -16 139 -57 177 -57 53 -220 92 -272 66z m197 -94 c39
-20 68 -67 76 -123 7 -47 -7 -92 -29 -92 -8 0 -43 37 -78 82 -99 127 -113 149
-99 158 15 9 92 -5 130 -25z"/>
<path d="M4052 6373 c-54 -93 -84 -177 -69 -192 15 -15 65 -14 145 4 89 21
132 47 132 81 0 49 -113 174 -157 174 -7 0 -30 -30 -51 -67z m98 -48 c33 -17
49 -53 29 -66 -20 -13 -93 -11 -106 2 -18 18 11 69 45 78 2 1 16 -6 32 -14z"/>
<path d="M4813 6410 c-34 -14 -29 -51 18 -144 49 -96 94 -164 123 -188 71 -58
126 32 126 205 -1 74 -9 95 -46 115 -29 15 -194 24 -221 12z m187 -66 c19 -19
20 -158 1 -177 -16 -16 -32 4 -78 100 -43 90 -40 108 20 99 23 -4 49 -14 57
-22z"/>
<path d="M5158 6410 c-23 -14 -23 -52 2 -142 10 -40 27 -118 36 -173 23 -137
35 -150 99 -94 46 40 101 154 122 251 19 92 11 121 -40 143 -44 18 -197 29
-219 15z m141 -70 c39 -11 51 -24 51 -60 0 -70 -53 -200 -70 -169 -16 29 -51
201 -45 220 7 22 16 23 64 9z"/>
<path d="M6320 6306 c0 -37 48 -213 70 -257 19 -37 42 -50 54 -30 7 11 -34
176 -64 254 -16 42 -26 57 -41 57 -13 0 -19 -7 -19 -24z"/>
<path d="M5683 6233 c-34 -12 -4 -42 111 -109 150 -88 594 -302 701 -339 60
-20 80 -7 46 29 -24 25 -347 193 -629 325 -199 94 -213 100 -229 94z"/>
<path d="M4222 6094 c-104 -18 -170 -42 -183 -65 -15 -30 7 -123 39 -161 28
-33 93 -67 129 -68 29 0 63 47 96 130 40 103 50 149 36 166 -13 16 -20 16
-117 -2z m45 -81 c-10 -57 -55 -143 -77 -143 -22 0 -78 54 -91 88 -13 33 0 45
76 71 89 30 99 29 92 -16z"/>
<path d="M6784 6066 c-15 -39 52 -234 84 -244 8 -2 12 7 12 27 0 42 -46 184
-69 213 -19 22 -20 22 -27 4z"/>
<path d="M4834 5981 c-47 -12 -52 -17 -64 -77 -15 -73 -6 -140 22 -155 17 -9
33 -5 92 25 93 48 204 130 219 163 19 42 -8 53 -132 52 -58 -1 -120 -4 -137
-8z m164 -63 c-6 -16 -108 -85 -133 -90 -17 -2 -20 3 -23 40 -3 36 0 44 20 51
36 15 141 14 136 -1z"/>
<path d="M4448 5963 c-33 -37 -108 -209 -108 -245 0 -12 8 -18 23 -18 68 1
257 72 257 96 0 44 -108 184 -142 184 -8 0 -22 -8 -30 -17z m68 -109 l19 -36
-24 -19 c-25 -21 -66 -25 -76 -8 -4 6 0 30 10 55 21 55 45 58 71 8z"/>
<path d="M5483 5815 c-197 -99 -253 -133 -253 -155 0 -27 100 10 299 109 165
83 221 118 221 137 0 33 -67 10 -267 -91z"/>
<path d="M6185 5691 c-61 -22 -349 -166 -387 -193 -35 -25 -36 -48 -3 -48 36
0 470 221 470 240 0 22 -23 22 -80 1z"/>
<path d="M6753 5693 c-20 -7 -15 -31 10 -47 46 -31 528 -203 632 -226 78 -17
103 13 38 44 -48 23 -117 49 -383 145 -207 76 -271 93 -297 84z"/>
<path d="M6550 5513 c-24 -10 -154 -99 -169 -117 -7 -9 -11 -23 -7 -31 4 -12
10 -13 33 -3 34 14 118 72 156 107 41 37 34 62 -13 44z"/>
<path d="M2261 4848 c-21 -6 -59 -34 -96 -72 -120 -122 -209 -348 -290 -736
-23 -107 -28 -164 -35 -395 -9 -277 -18 -361 -94 -820 -49 -297 -55 -447 -22
-527 43 -103 94 -123 289 -115 414 17 698 126 781 300 32 68 40 194 13 231
-12 16 -18 16 -102 -14 -245 -88 -521 -160 -607 -160 -69 0 -72 8 -65 163 9
184 58 460 162 907 123 529 201 917 212 1057 7 90 -14 156 -57 178 -33 17 -41
17 -89 3z"/>
<path d="M3503 4816 c-120 -58 -186 -133 -238 -269 -39 -105 -34 -257 25 -785
68 -602 97 -733 260 -1196 49 -137 53 -189 20 -260 -41 -91 -19 -155 68 -197
l44 -22 42 20 c52 26 177 133 237 204 67 79 95 127 114 194 18 67 100 254 181
417 257 515 466 1110 481 1370 7 132 6 134 -116 93 -67 -22 -95 -38 -126 -70
-49 -49 -56 -72 -94 -295 -44 -259 -125 -473 -363 -952 -126 -254 -176 -332
-203 -322 -24 10 -52 103 -84 280 -73 400 -83 562 -79 1203 3 556 1 588 -42
611 -30 16 -51 12 -127 -24z"/>
<path d="M6145 4840 c-98 -9 -233 -38 -311 -68 -108 -41 -305 -199 -398 -321
-154 -200 -213 -363 -266 -731 -74 -512 -104 -861 -98 -1156 l3 -201 37 -41
c21 -23 40 -54 44 -69 18 -84 9 -78 130 -77 150 0 433 59 604 126 177 69 374
191 464 288 65 70 77 107 46 132 -31 25 -49 23 -124 -17 -36 -19 -93 -44 -126
-55 -94 -32 -312 -77 -457 -95 -147 -19 -355 -18 -374 2 -9 9 -3 78 25 295 21
156 42 300 47 321 13 50 63 104 107 117 138 39 370 72 637 91 88 6 171 16 185
23 35 16 52 75 48 168 -3 69 -6 80 -32 107 -42 44 -111 56 -240 41 -230 -26
-372 -72 -540 -174 -85 -51 -90 -49 -82 27 21 188 167 707 227 804 44 71 141
92 434 93 182 0 331 15 362 35 64 42 49 233 -23 296 -43 37 -173 53 -329 39z"/>
<path d="M8150 4840 c-244 -21 -372 -71 -538 -208 -197 -163 -330 -373 -392
-621 -80 -316 -174 -1247 -155 -1531 7 -112 13 -129 56 -173 16 -16 31 -43 34
-65 10 -64 14 -67 106 -70 137 -5 479 70 665 146 103 42 232 115 321 181 96
72 137 115 158 163 14 36 14 39 -6 59 -27 27 -75 21 -128 -15 -49 -34 -123
-60 -271 -95 -181 -44 -304 -61 -480 -68 -178 -6 -210 1 -210 44 0 33 57 486
71 558 13 71 42 113 92 135 85 38 355 79 652 100 83 6 163 13 178 16 42 9 59
43 64 136 8 148 -40 194 -202 192 -194 -3 -424 -66 -577 -159 -50 -30 -98 -55
-106 -55 -12 0 -14 13 -8 75 14 152 150 645 212 768 49 96 83 105 439 118 302
10 362 17 382 45 41 56 37 177 -7 249 -41 67 -157 92 -350 75z"/>
<path d="M102 1635 c-41 -52 -62 -132 -82 -317 -24 -209 -23 -296 2 -312 21
-13 157 8 208 32 29 14 35 23 35 47 0 35 -5 35 -102 14 -46 -9 -66 -10 -74 -2
-11 11 -2 79 51 361 24 129 24 195 -1 200 -9 2 -26 -9 -37 -23z"/>
<path d="M2064 1642 c-35 -28 -44 -56 -44 -134 0 -80 32 -307 50 -353 6 -17
17 -57 24 -90 14 -69 34 -80 78 -46 46 37 168 300 208 451 18 67 17 90 -4 90
-27 0 -58 -51 -90 -146 -33 -100 -97 -237 -115 -248 -18 -11 -27 46 -41 259
-17 247 -20 255 -66 217z"/>
<path d="M5135 1548 c-107 -227 -235 -536 -235 -568 0 -46 47 -15 81 53 45 88
229 580 229 613 0 38 -26 4 -75 -98z"/>
<path d="M5653 1630 c-73 -36 -105 -79 -128 -170 -36 -141 -58 -321 -46 -384
14 -76 55 -92 162 -60 81 24 151 62 182 100 16 19 36 38 46 43 15 8 17 6 13
-19 -9 -62 74 -46 161 30 l43 38 22 -34 c42 -64 79 -56 197 41 37 30 71 55 76
55 22 0 -3 -65 -36 -96 -14 -13 -25 -34 -25 -49 0 -34 27 -85 45 -85 15 0 100
65 196 150 l62 54 -7 -64 c-7 -73 6 -113 39 -118 19 -3 44 13 119 72 l36 28
40 -36 c22 -20 48 -36 58 -36 39 0 127 53 197 120 40 38 81 70 90 70 31 0 38
-49 20 -128 -21 -92 -17 -105 27 -90 43 14 78 39 159 110 37 32 69 58 72 58 3
0 -4 -34 -15 -77 -17 -66 -17 -78 -5 -90 20 -20 39 -9 110 66 33 34 64 62 70
62 30 3 45 -5 82 -48 l40 -45 63 65 c79 83 83 108 12 72 l-50 -25 -26 42 c-45
72 -51 73 -134 12 -55 -40 -62 -43 -55 -23 5 13 9 51 9 84 1 92 -14 86 -153
-54 l-119 -121 5 77 6 78 -47 43 c-71 66 -95 58 -174 -52 -36 -51 -125 -116
-159 -116 -47 0 -37 32 33 109 47 53 65 90 53 112 -33 62 -137 3 -194 -110
-19 -38 -102 -131 -117 -131 -27 0 42 242 79 276 23 22 24 27 18 89 -9 82 -24
91 -69 41 -32 -34 -37 -36 -99 -36 -90 0 -117 -11 -117 -50 0 -34 11 -38 103
-42 l57 -3 -36 -54 c-52 -77 -188 -214 -179 -181 3 14 9 64 12 111 8 128 0
128 -160 -8 -98 -83 -129 -97 -135 -58 -12 84 -36 87 -118 15 -92 -80 -76 -48
29 59 53 54 97 103 97 110 0 20 -27 23 -62 7 -18 -9 -99 -75 -178 -147 -186
-168 -201 -177 -296 -194 -118 -21 -116 -22 -109 23 15 89 28 133 44 141 9 5
55 15 101 21 46 6 92 16 103 21 27 15 18 52 -16 63 -26 9 -48 6 -179 -31 -15
-5 -15 4 8 88 36 136 42 143 145 149 79 5 84 6 87 28 10 67 -83 83 -185 32z
m1267 -325 c-7 -9 -15 -13 -18 -10 -3 2 1 11 8 20 7 9 15 13 18 10 3 -2 -1
-11 -8 -20z"/>
<path d="M8327 1646 c-43 -16 -101 -58 -122 -89 -39 -61 -91 -345 -83 -457 5
-72 28 -100 83 -100 73 0 229 76 294 144 19 20 40 36 47 36 6 0 22 -21 35 -47
34 -68 62 -69 127 -9 54 50 63 54 83 30 41 -49 84 -36 169 51 30 31 63 61 73
66 45 25 60 -42 32 -135 -21 -68 -19 -76 13 -76 30 0 76 25 140 78 35 28 46
32 53 21 5 -8 9 -19 9 -25 0 -24 42 -54 75 -54 32 0 109 48 143 89 24 29 52
95 52 124 0 35 -40 77 -75 77 -14 0 -25 5 -25 10 0 6 -8 10 -19 10 -18 0 -96
-66 -216 -182 l-60 -58 4 81 3 80 -37 34 c-71 68 -109 58 -170 -41 -22 -36
-50 -75 -62 -86 l-23 -21 -15 36 c-8 20 -15 43 -15 52 0 9 -7 18 -16 22 -12 4
-37 -16 -87 -68 l-71 -74 -4 33 c-2 18 7 67 19 108 12 41 19 77 16 80 -15 15
-54 -15 -132 -104 -144 -163 -165 -175 -327 -198 l-48 -6 0 33 c0 18 7 59 16
90 l16 58 52 10 c28 5 71 13 96 16 87 12 105 30 70 65 -25 25 -62 25 -135 0
-32 -11 -62 -20 -68 -20 -11 0 -3 49 23 134 30 96 35 100 132 106 l83 5 3 30
c3 19 -2 33 -14 42 -23 17 -88 16 -137 -1z m1153 -396 c0 -24 -71 -100 -93
-100 -29 0 -20 50 15 87 36 38 78 45 78 13z"/>
<path d="M3616 1571 c-19 -36 -33 -41 -111 -41 -84 0 -115 -12 -115 -44 0 -34
26 -46 104 -46 l66 0 -49 -68 c-54 -73 -148 -168 -159 -158 -3 4 -8 25 -11 49
-9 62 -40 62 -109 1 -93 -81 -70 -37 31 61 53 51 97 99 97 105 0 19 -27 22
-57 7 -16 -9 -100 -67 -186 -131 -227 -167 -267 -184 -267 -112 0 31 8 41 70
92 72 58 90 80 90 108 0 39 -56 12 -215 -102 -54 -40 -105 -72 -112 -72 -7 0
-13 11 -13 26 0 37 -18 64 -42 64 -11 0 -40 -17 -63 -39 -92 -85 -84 -58 13
43 57 58 102 112 99 119 -8 26 -45 17 -105 -27 -78 -58 -272 -244 -272 -262 0
-19 13 -17 43 6 l26 20 3 -32 c2 -25 8 -34 25 -36 28 -4 88 27 135 71 l38 34
25 -32 c33 -45 78 -54 116 -26 l29 22 9 -24 c14 -36 59 -67 98 -67 19 0 67 17
113 40 44 22 82 40 85 40 4 0 4 -8 0 -19 -3 -10 1 -24 10 -31 24 -20 85 3 143
55 l50 45 16 -25 c24 -36 61 -58 87 -50 11 4 49 30 83 59 l61 52 -3 -81 c-6
-131 22 -136 157 -30 45 36 86 65 91 65 4 0 17 -16 29 -35 35 -60 78 -63 148
-9 17 13 34 24 36 24 3 0 8 -12 12 -27 10 -43 44 -73 81 -73 48 0 123 55 161
120 53 87 42 153 -28 167 -16 3 -29 9 -29 14 0 26 -51 0 -145 -76 -58 -46
-114 -89 -124 -95 -23 -12 -31 -3 -55 62 -10 26 -22 51 -28 54 -12 8 -50 -19
-141 -99 -37 -33 -70 -57 -74 -53 -10 10 24 172 47 224 10 23 25 42 33 42 22
0 25 19 14 93 -8 54 -14 67 -28 67 -10 0 -25 -13 -33 -29z m554 -323 c0 -24
-71 -98 -94 -98 -42 0 6 100 58 120 27 10 36 4 36 -22z"/>
<path d="M452 1573 c-60 -29 -93 -95 -56 -110 39 -15 104 46 104 97 0 27 -12
31 -48 13z"/>
<path d="M3834 1574 c-49 -26 -75 -56 -72 -84 2 -17 10 -26 26 -28 30 -5 92
57 92 91 0 34 -11 39 -46 21z"/>
<path d="M9728 1493 c-9 -10 -25 -36 -36 -58 -11 -22 -50 -89 -86 -149 -83
-137 -87 -162 -18 -109 l35 26 -6 -24 c-15 -55 -28 -188 -25 -254 2 -56 6 -70
20 -73 22 -4 48 46 83 163 25 81 60 174 70 183 2 3 21 -10 42 -27 42 -34 52
-36 99 -19 30 11 35 9 61 -19 43 -45 65 -49 122 -18 75 41 182 155 145 155 -4
0 -39 -20 -78 -45 -71 -44 -109 -55 -121 -35 -7 12 18 62 41 81 32 26 74 92
74 116 0 15 -9 27 -25 35 -49 22 -106 -22 -179 -137 -44 -70 -73 -73 -112 -11
-50 79 -68 72 -114 -45 -36 -92 -38 -70 -4 47 14 49 32 115 39 147 18 79 7
108 -27 70z m322 -188 c-7 -8 -17 -15 -23 -15 -5 0 -2 9 8 20 21 23 35 19 15
-5z"/>
<path d="M1588 1407 c-78 -64 -77 -63 -103 -31 -36 44 -58 25 -66 -55 -5 -49
-12 -68 -32 -88 -34 -34 -54 -25 -68 32 -7 29 -17 45 -27 45 -8 0 -44 -31 -80
-70 -75 -81 -96 -89 -86 -32 4 20 15 61 25 91 41 119 12 121 -96 6 -44 -47
-87 -85 -96 -85 -8 0 -29 20 -47 45 -17 25 -36 45 -42 45 -18 0 -52 -20 -99
-58 -42 -34 -44 -35 -37 -12 4 14 10 51 13 82 5 48 3 59 -11 64 -18 7 -45 -12
-151 -106 -102 -90 -102 -90 -125 -33 -26 62 -34 76 -47 80 -25 9 -183 -146
-183 -178 0 -18 30 -8 63 21 47 41 69 38 101 -10 22 -33 32 -40 60 -40 32 0
83 28 136 74 14 12 32 28 42 34 18 14 17 12 -12 -101 -9 -36 -10 -50 -1 -61
19 -23 48 -7 107 58 30 33 63 64 72 67 24 9 51 -7 90 -52 l33 -39 52 39 c58
44 67 42 85 -18 20 -65 45 -63 135 12 l47 40 23 -20 c40 -38 68 -34 136 17 81
61 95 50 36 -27 -43 -57 -34 -74 23 -42 39 23 40 23 79 5 40 -18 41 -18 89 7
63 32 154 105 154 123 0 21 -13 18 -77 -20 -33 -19 -70 -37 -84 -40 -31 -8
-58 8 -44 27 6 8 27 36 47 63 51 68 74 129 59 160 -15 34 -33 30 -93 -19z m-6
-85 c-12 -16 -28 -35 -37 -42 -30 -25 -17 15 16 48 38 39 50 35 21 -6z"/>
<path d="M4363 1318 c-165 -160 -202 -237 -65 -133 l73 55 -7 -38 c-4 -20 -11
-47 -15 -60 -12 -31 -11 -79 1 -87 16 -10 46 11 113 80 34 36 69 65 77 65 8 0
35 -22 61 -50 l46 -49 67 69 c37 38 65 74 61 80 -4 6 -25 0 -55 -15 l-48 -25
-26 44 c-40 68 -60 68 -147 2 l-45 -35 11 56 c13 67 8 113 -12 113 -8 0 -49
-33 -90 -72z"/>
</g>
</svg>
